HIERARCHY
ROOT Hips
{
	OFFSET -0.001795 -0.223333 0.028219
	CHANNELS 6 Xposition Yposition Zposition Zrotation Yrotation Xrotation 
	JOINT LeftUpLeg
	{
		OFFSET 0.069520 -0.091406 -0.006815
		CHANNELS 3 Zrotation Yrotation Xrotation
		JOINT LeftLeg
		{
			OFFSET 0.034277 -0.375199 -0.004496
			CHANNELS 3 Zrotation Yrotation Xrotation
			JOINT LeftFoot
			{
				OFFSET -0.013596 -0.397961 -0.043693
				CHANNELS 3 Zrotation Yrotation Xrotation
				JOINT LeftToe
				{
					OFFSET 0.026358 -0.055791 0.119288
					CHANNELS 3 Zrotation Yrotation Xrotation
					End Site
					{
						OFFSET 0.000000 0.000000 0.000000
					}
				}
			}
		}
	}
	JOINT RightUpLeg
	{
		OFFSET -0.067670 -0.090522 -0.004320
		CHANNELS 3 Zrotation Yrotation Xrotation
		JOINT RightLeg
		{
			OFFSET -0.038290 -0.382569 -0.008850
			CHANNELS 3 Zrotation Yrotation Xrotation
			JOINT RightFoot
			{
				OFFSET 0.015774 -0.398415 -0.042312
				CHANNELS 3 Zrotation Yrotation Xrotation
				JOINT RightToe
				{
					OFFSET -0.025372 -0.048144 0.123348
					CHANNELS 3 Zrotation Yrotation Xrotation
					End Site
					{
						OFFSET 0.000000 0.000000 0.000000
					}
				}
			}
		}
	}
	JOINT Spine
	{
		OFFSET -0.002533 0.108963 -0.026696
		CHANNELS 3 Zrotation Yrotation Xrotation
		JOINT Spine1
		{
			OFFSET 0.005487 0.135180 0.001092
			CHANNELS 3 Zrotation Yrotation Xrotation
			JOINT Spine2
			{
				OFFSET 0.001457 0.052922 0.025425
				CHANNELS 3 Zrotation Yrotation Xrotation
				JOINT Neck
				{
					OFFSET -0.002778 0.213870 -0.042857
					CHANNELS 3 Zrotation Yrotation Xrotation
					JOINT Head
					{
						OFFSET 0.005152 0.064970 0.051349
						CHANNELS 3 Zrotation Yrotation Xrotation
						End Site
						{
							OFFSET 0.000000 0.000000 0.000000
						}
					}
				}
				JOINT LeftShoulder
				{
					OFFSET 0.078845 0.121749 -0.034090
					CHANNELS 3 Zrotation Yrotation Xrotation
					JOINT LeftArm
					{
						OFFSET 0.090977 0.030469 -0.008868
						CHANNELS 3 Zrotation Yrotation Xrotation
						JOINT LeftForeArm
						{
							OFFSET 0.259612 -0.012772 -0.027456
							CHANNELS 3 Zrotation Yrotation Xrotation
							JOINT LeftHand
							{
								OFFSET 0.249234 0.008986 -0.001171
								CHANNELS 3 Zrotation Yrotation Xrotation
								End Site
								{
									OFFSET 0.000000 0.000000 0.000000
								}
							}
						}
					}
				}
				JOINT RightShoulder
				{
					OFFSET -0.081759 0.118833 -0.038615
					CHANNELS 3 Zrotation Yrotation Xrotation
					JOINT RightArm
					{
						OFFSET -0.096012 0.032551 -0.009143
						CHANNELS 3 Zrotation Yrotation Xrotation
						JOINT RightForeArm
						{
							OFFSET -0.253742 -0.013329 -0.021401
							CHANNELS 3 Zrotation Yrotation Xrotation
							JOINT RightHand
							{
								OFFSET -0.255298 0.007772 -0.005559
								CHANNELS 3 Zrotation Yrotation Xrotation
								End Site
								{
									OFFSET 0.000000 0.000000 0.000000
								}
							}
						}
					}
				}
			}
		}
	}
}
MOTION
Frames: 7
Frame Time: 0.050000
0.108637 0.974940 0.004211 -1.930170 -4.364853 8.616390 0.810264 -0.518857 -5.892863 2.033372 -0.307185 1.575451 -4.730553 -5.934048 7.732194 0.000000 0.000000 0.000000 3.128569 1.838794 -15.199413 -3.710889 1.291421 11.668532 0.189163 -3.284113 7.108273 0.000000 0.000000 0.000000 2.770740 -0.538832 6.815236 -1.358103 0.642948 -1.207352 -6.311794 10.082750 10.176608 11.368328 -5.075625 -16.053630 0.000000 0.000000 0.000000 -6.069917 -11.618516 3.287436 -55.742941 -3.844236 -5.692625 -7.167628 -17.911490 1.569906 0.000000 0.000000 0.000000 5.998924 7.680039 3.517281 64.110437 14.399871 2.379474 10.488404 29.789598 4.139430 0.000000 0.000000 0.000000 
0.093662 0.977440 0.017610 -2.098296 -4.391811 9.200211 1.807763 -0.616805 -7.610866 1.593144 -0.384524 4.693554 -4.605162 -5.996184 7.159843 0.000000 0.000000 0.000000 4.481367 1.673972 -13.391430 -3.755964 1.101005 9.354050 -0.227814 -4.169148 7.065040 0.000000 0.000000 0.000000 2.528545 -0.468143 5.923086 -1.688432 0.790737 -1.489697 -6.895566 9.439096 10.376897 11.102829 -5.011103 -15.854317 0.000000 0.000000 0.000000 -6.252167 -10.543848 2.921763 -55.243990 -3.819403 -5.622075 -6.659491 -18.888325 1.583142 0.000000 0.000000 0.000000 6.044618 7.532708 3.411898 64.431552 12.203884 1.054233 12.981401 31.067444 5.024946 0.000000 0.000000 0.000000 
0.081344 0.978256 0.030285 -2.206077 -4.613710 9.644035 2.938811 -0.747244 -10.636733 0.939118 -0.445004 9.712613 -4.286520 -6.014229 5.962560 0.000000 0.000000 0.000000 5.733715 1.521467 -11.952219 -4.328881 1.062620 7.766141 -0.327998 -4.279616 6.761928 0.000000 0.000000 0.000000 2.176056 -0.429277 5.752606 -1.641579 0.767354 -1.776564 -7.370114 9.509692 10.160022 11.370711 -5.200258 -15.735371 0.000000 0.000000 0.000000 -6.134537 -11.205427 3.182985 -55.212787 -4.276612 -5.382556 -6.234249 -19.898177 1.588408 0.000000 0.000000 0.000000 6.080665 6.274887 2.879620 64.411832 9.789368 -0.292797 15.051490 32.097547 5.848050 0.000000 0.000000 0.000000 
0.072434 0.978500 0.042910 -2.378926 -5.000949 9.633038 3.229915 -0.834135 -12.802884 1.551960 -0.660540 12.676505 -3.835902 -5.820172 4.648861 0.000000 0.000000 0.000000 6.650348 1.317800 -10.436408 -4.598950 1.021206 6.812247 -0.261827 -4.447003 7.387353 0.000000 0.000000 0.000000 1.653610 -0.370929 5.570622 -1.269570 0.600854 -1.697391 -7.375138 8.430106 9.661765 11.342383 -5.523233 -14.739080 0.000000 0.000000 0.000000 -7.053618 -10.994528 3.177070 -54.672832 -4.392211 -5.129906 -6.662512 -21.217129 1.811521 0.000000 0.000000 0.000000 6.368328 5.837274 2.591221 63.884796 7.537864 -1.709899 16.692746 32.668388 6.387948 0.000000 0.000000 0.000000 
0.067124 0.977305 0.055238 -2.299058 -5.936441 9.253213 3.108540 -0.869826 -13.674021 1.580472 -0.647872 12.656172 -3.549381 -5.957655 3.315541 0.000000 0.000000 0.000000 7.046933 1.118250 -9.153431 -5.269687 1.085422 6.384795 0.079437 -3.855564 7.472087 0.000000 0.000000 0.000000 1.062080 -0.320385 5.730058 -1.274865 0.599232 -2.153628 -7.100301 8.137425 9.956591 11.569885 -5.805613 -14.604867 0.000000 0.000000 0.000000 -7.184344 -11.742383 3.590717 -54.899160 -4.959947 -4.907507 -6.857306 -22.909003 2.038189 0.000000 0.000000 0.000000 6.722968 5.548024 2.404759 63.694246 6.435938 -2.494001 16.175231 32.421820 6.140863 0.000000 0.000000 0.000000 
0.065597 0.977205 0.067220 -2.374447 -7.031750 9.297604 2.902206 -0.878570 -13.855319 2.353551 -0.736698 10.733904 -3.285317 -5.181212 3.920920 0.000000 0.000000 0.000000 7.060675 1.068263 -8.898478 -5.249796 1.170270 7.279356 0.415816 -3.193167 7.345672 0.000000 0.000000 0.000000 0.671752 -0.258374 5.148993 -1.298294 0.607001 -1.945817 -6.352953 7.247501 9.604449 10.854868 -5.716170 -13.477058 0.000000 0.000000 0.000000 -6.911070 -11.888193 3.849586 -56.477342 -5.855511 -4.578177 -7.262398 -24.316332 2.328175 0.000000 0.000000 0.000000 6.717706 5.621441 2.276349 64.216059 6.347219 -2.696224 14.671258 31.403291 5.391713 0.000000 0.000000 0.000000 
0.067698 0.978068 0.079323 -2.616732 -8.246231 8.741023 2.557204 -0.819625 -12.436598 2.652520 -0.636742 6.850116 -3.869016 -5.420676 6.038547 0.000000 0.000000 0.000000 6.767826 1.020969 -8.662260 -5.202016 1.291604 8.522296 0.684557 -2.916273 7.690635 0.000000 0.000000 0.000000 0.777677 -0.253617 4.908996 -1.226994 0.568870 -2.144707 -5.827422 7.145171 9.963109 9.996274 -5.356566 -12.893469 0.000000 0.000000 0.000000 -6.665972 -11.794745 3.925747 -57.851451 -6.881694 -4.221730 -8.393457 -25.807676 2.789333 0.000000 0.000000 0.000000 6.905682 5.600904 2.183747 64.207360 5.785354 -3.167282 13.763911 30.911914 5.001534 0.000000 0.000000 0.000000 
